<?xml version="1.0" standalone="no"?>
<!DOCTYPE svg PUBLIC "-//W3C//DTD SVG 20010904//EN"
 "http://www.w3.org/TR/2001/REC-SVG-20010904/DTD/svg10.dtd">
<svg version="1.0" xmlns="http://www.w3.org/2000/svg"
 width="318.000000pt" height="318.000000pt" viewBox="0 0 318.000000 318.000000"
 preserveAspectRatio="xMidYMid meet">
<metadata>
Created by potrace 1.14, written by Peter Selinger 2001-2017
</metadata>
<g transform="translate(0.000000,318.000000) scale(0.100000,-0.100000)"
fill="#000000" stroke="none">
<path d="M1354 2771 c-166 -45 -347 -169 -436 -299 -72 -104 -135 -307 -123
-395 4 -35 -20 -47 -40 -21 -13 17 -16 17 -25 4 -14 -22 -13 -28 15 -46 14 -9
25 -25 25 -36 0 -18 -2 -19 -16 -7 -9 7 -20 23 -25 36 -11 29 -32 29 -76 2
-29 -18 -38 -20 -63 -9 -17 7 -30 18 -30 24 0 7 -10 22 -22 33 -13 11 -28 29
-34 39 -7 10 -15 16 -19 12 -12 -11 10 -52 49 -95 20 -21 46 -52 58 -69 13
-18 39 -54 58 -80 19 -27 55 -70 79 -96 26 -29 41 -53 38 -62 -4 -9 -31 -29
-61 -46 -85 -49 -191 -153 -241 -237 -46 -80 -86 -198 -103 -303 -6 -40 -27
-102 -55 -160 -92 -193 -117 -252 -139 -323 -12 -40 -32 -93 -45 -118 -13 -26
-23 -56 -23 -68 0 -11 -10 -30 -22 -42 -13 -12 -17 -19 -10 -15 7 5 12 1 12
-9 0 -9 -4 -14 -9 -10 -5 3 -12 -4 -16 -14 -3 -11 -12 -18 -19 -15 -20 8 -28
-42 -33 -203 l-4 -143 695 0 696 0 -19 53 c-28 80 -25 122 15 180 23 33 49 56
77 69 23 11 50 24 59 29 10 5 29 9 43 9 14 0 54 10 88 22 34 11 73 22 87 23
35 2 93 16 105 25 6 4 28 6 50 5 22 -1 63 4 90 11 28 8 62 15 78 16 15 1 27 5
27 8 0 3 66 6 148 8 81 1 176 6 212 12 36 5 139 14 230 20 91 7 217 19 280 27
63 9 138 18 165 22 l50 6 3 43 3 42 -45 0 c-25 0 -46 5 -46 10 0 6 -12 10 -27
10 -19 0 -24 -3 -15 -9 11 -7 11 -9 -2 -14 -8 -3 -16 -1 -18 5 -3 8 -11 9 -24
3 -21 -10 -18 -9 -94 -18 -123 -14 -150 -16 -150 -6 0 5 -4 9 -10 9 -5 0 -10
-7 -10 -16 0 -8 -4 -12 -10 -9 -6 3 -15 3 -22 -1 -6 -4 -25 -8 -42 -10 -82 -5
-246 -26 -291 -35 -27 -6 -75 -15 -105 -19 -79 -12 -113 -21 -128 -33 -7 -6
-30 -11 -50 -13 -114 -7 -251 -30 -304 -50 -35 -13 -38 -12 -38 4 1 34 79 71
220 104 47 11 99 22 115 25 17 2 37 7 45 10 8 4 40 7 70 8 30 1 79 8 109 16
43 11 55 11 59 1 5 -17 41 -15 125 7 104 28 246 46 259 33 7 -7 18 -8 27 -3 9
5 35 12 59 16 23 4 42 10 42 15 0 4 21 10 48 13 46 5 92 13 141 23 13 3 21 8
18 11 -14 13 16 43 53 53 l40 11 0 100 c0 107 2 104 -52 67 -14 -10 -31 -18
-37 -18 -6 0 -28 -11 -49 -23 -20 -13 -54 -27 -74 -31 -37 -7 -38 -6 -61 42
-61 126 -155 226 -311 330 -44 30 -85 60 -91 67 -5 6 -40 33 -77 59 -38 26
-68 51 -68 55 0 4 11 35 25 69 30 73 33 147 7 178 -9 12 -32 29 -50 39 -25 12
-32 21 -27 33 52 127 85 263 85 352 0 116 -67 266 -164 370 -219 233 -375 307
-666 316 -122 4 -156 1 -216 -15z m15 -417 c67 -26 116 -117 104 -192 -6 -39
-36 -107 -52 -117 -6 -3 -17 5 -26 18 -37 57 -113 53 -162 -8 -35 -44 -66 -46
-90 -5 -9 17 -20 30 -24 30 -18 0 -29 68 -19 113 31 138 149 209 269 161z
m681 -29 c0 -3 -8 -22 -19 -43 -10 -20 -25 -56 -32 -80 -14 -50 -34 -71 -51
-54 -25 25 49 182 87 182 8 0 15 -2 15 -5z m165 -85 c19 0 59 -39 79 -77 41
-81 23 -239 -35 -300 -16 -18 -34 -33 -38 -33 -4 0 -8 28 -8 62 0 52 -3 64
-22 80 -13 10 -27 18 -32 18 -20 0 -49 -42 -55 -80 -8 -49 -22 -47 -49 6 -15
30 -20 59 -20 124 0 81 2 87 34 132 33 46 92 82 119 73 8 -3 20 -5 27 -5z
m-375 -329 c0 -6 -9 -9 -19 -8 -11 0 -17 5 -15 9 7 11 34 10 34 -1z m-965 -61
c6 0 25 -19 44 -41 26 -32 31 -43 20 -49 -8 -6 -21 0 -36 16 -13 14 -23 27
-23 30 0 6 -20 31 -42 52 -10 9 -18 23 -18 32 1 10 8 6 23 -12 13 -16 27 -28
32 -28z m1025 39 c34 -10 39 -16 44 -51 4 -21 10 -36 16 -33 5 3 12 0 15 -6 4
-5 13 -8 20 -5 8 3 16 -5 19 -20 4 -13 11 -24 16 -24 12 0 13 -33 3 -44 -4 -4
-8 -15 -8 -24 -1 -9 -2 -29 -3 -44 -2 -30 -19 -36 -50 -18 -17 9 -86 26 -147
36 -43 7 -77 25 -98 52 -10 12 -27 22 -37 22 -10 0 -20 7 -24 15 -3 8 -13 15
-21 15 -9 0 -24 7 -33 16 -10 11 -17 13 -20 5 -2 -6 -11 -11 -20 -11 -15 0
-15 2 1 17 15 15 21 16 38 5 27 -17 45 -5 24 18 -13 14 -13 19 -2 28 17 14 27
6 27 -21 0 -16 5 -18 28 -12 33 8 53 25 29 25 -9 0 -17 5 -17 10 0 6 7 10 15
10 8 0 19 9 25 19 8 15 23 21 63 24 28 2 54 4 56 5 2 1 21 -3 41 -9z m80 -55
c0 -8 -4 -12 -10 -9 -5 3 -10 10 -10 16 0 5 5 9 10 9 6 0 10 -7 10 -16z m-992
-111 c6 -19 -25 -16 -32 3 -4 11 -1 14 11 12 9 -2 18 -9 21 -15z m912 -135
c25 -5 60 -10 78 -10 39 -1 43 -23 7 -40 -13 -6 -27 -19 -30 -28 -5 -16 -81
-40 -129 -40 -26 0 -165 47 -183 62 -6 5 -9 16 -7 23 4 9 -6 16 -30 21 -47 8
-46 22 2 26 60 6 243 -3 292 -14z m-770 -39 c0 -10 -2 -19 -4 -19 -11 0 -36
33 -31 40 9 15 35 -1 35 -21z m291 -346 c55 -59 129 -149 129 -158 0 -4 11
-16 25 -27 23 -18 34 -48 18 -48 -12 0 -43 33 -43 47 0 7 -6 13 -14 13 -8 0
-36 26 -63 58 -26 31 -51 60 -56 63 -16 12 -57 74 -57 86 0 23 14 14 61 -34z
m550 -67 c-23 -37 -47 -51 -57 -35 -7 11 16 49 48 79 19 18 24 19 26 6 2 -9
-6 -31 -17 -50z"/>
<path d="M1660 1560 c0 -5 5 -10 10 -10 6 0 10 5 10 10 0 6 -4 10 -10 10 -5 0
-10 -4 -10 -10z"/>
</g>
</svg>
